<svg width="28" height="28" viewBox="0 0 28 28" fill="none" xmlns="http://www.w3.org/2000/svg">
<path d="M22.5206 6.22665C20.9235 5.49616 19.2272 4.96378 17.4567 4.66663C17.2339 5.05045 16.9862 5.57045 16.8128 5.97903C14.9297 5.70664 13.0601 5.70664 11.203 5.97903C11.0296 5.57045 10.7696 5.05045 10.5591 4.66663C8.77626 4.96378 7.08004 5.49616 5.49401 6.22665C2.28728 10.9563 1.4206 15.5744 1.85395 20.1307C3.9835 21.6784 6.03881 22.6193 8.05818 23.2384C8.55343 22.5698 8.99915 21.8516 9.38297 21.0964C8.65248 20.824 7.95913 20.4898 7.29054 20.0936C7.46389 19.9698 7.63723 19.8336 7.79818 19.6974C11.8344 21.5422 16.2063 21.5422 20.1929 19.6974C20.3663 19.8336 20.5273 19.9698 20.7006 20.0936C20.032 20.4898 19.3387 20.824 18.6082 21.0964C18.992 21.8516 19.4377 22.5698 19.933 23.2384C21.9511 22.6193 24.0187 21.6784 26.1372 20.1307C26.6695 14.8564 25.294 10.2753 22.5206 6.22665ZM9.94011 17.3202C8.72675 17.3202 7.73625 16.2183 7.73625 14.8688C7.73625 13.5192 8.70198 12.4173 9.94011 12.4173C11.1658 12.4173 12.1687 13.5192 12.1439 14.8688C12.1439 16.2183 11.1658 17.3202 9.94011 17.3202ZM18.0759 17.3202C16.8624 17.3202 15.8706 16.2183 15.8706 14.8688C15.8706 13.5192 16.8377 12.4173 18.0759 12.4173C19.3016 12.4173 20.3044 13.5192 20.2796 14.8688C20.2796 16.2183 19.3139 17.3202 18.0759 17.3202Z" fill="#A8A29E"/>
</svg>
