<svg width="28" height="29" viewBox="0 0 28 29" fill="none" xmlns="http://www.w3.org/2000/svg">
<path d="M15.1994 2.83423C16.5124 2.8364 17.1778 2.84335 17.7527 2.86047L17.9791 2.86786C18.2407 2.87716 18.4988 2.88883 18.8099 2.90341C20.0514 2.96078 20.8983 3.15716 21.642 3.44591C22.411 3.74244 23.0604 4.143 23.7089 4.79148C24.3564 5.43994 24.757 6.09133 25.0545 6.85841C25.3422 7.60119 25.5387 8.44898 25.597 9.6905C25.6109 10.0016 25.6221 10.2597 25.6313 10.5213L25.6387 10.7477C25.6557 11.3226 25.6635 11.988 25.666 13.3011L25.6669 14.1709C25.667 14.2772 25.667 14.3869 25.667 14.5L25.6669 14.8292L25.6662 15.6991C25.664 17.0121 25.6571 17.6776 25.6399 18.2524L25.6325 18.4788C25.6233 18.7405 25.6116 18.9986 25.597 19.3096C25.5396 20.5512 25.3422 21.398 25.0545 22.1417C24.7579 22.9108 24.3564 23.5603 23.7089 24.2087C23.0604 24.8562 22.408 25.2567 21.642 25.5542C20.8983 25.842 20.0514 26.0384 18.8099 26.0967C18.4988 26.1106 18.2407 26.1219 17.9791 26.131L17.7527 26.1384C17.1778 26.1555 16.5124 26.1632 15.1994 26.1658L14.3295 26.1667C14.2232 26.1667 14.1135 26.1667 14.0003 26.1667H13.6712L12.8012 26.1659C11.4883 26.1638 10.8228 26.1568 10.248 26.1396L10.0215 26.1323C9.75991 26.123 9.50184 26.1113 9.19074 26.0967C7.94921 26.0394 7.10337 25.842 6.35866 25.5542C5.59059 25.2578 4.94018 24.8562 4.29171 24.2087C3.64324 23.5603 3.24366 22.9079 2.94616 22.1417C2.65741 21.398 2.46199 20.5512 2.40366 19.3096C2.3898 18.9986 2.37849 18.7405 2.36933 18.4788L2.36199 18.2524C2.34493 17.6776 2.33714 17.0121 2.33462 15.6991L2.33447 13.3011C2.33664 11.988 2.34358 11.3226 2.3607 10.7477L2.36811 10.5213C2.37741 10.2597 2.38907 10.0016 2.40366 9.6905C2.46101 8.448 2.65741 7.60216 2.94616 6.85841C3.24268 6.09036 3.64324 5.43994 4.29171 4.79148C4.94018 4.143 5.59157 3.74341 6.35866 3.44591C7.10241 3.15716 7.94824 2.96175 9.19074 2.90341C9.50184 2.88956 9.75991 2.87826 10.0215 2.8691L10.248 2.86176C10.8228 2.84468 11.4883 2.8369 12.8012 2.83438L15.1994 2.83423ZM14.0003 8.66675C10.7769 8.66675 8.16699 11.2795 8.16699 14.5C8.16699 17.7234 10.7798 20.3334 14.0003 20.3334C17.2237 20.3334 19.8337 17.7206 19.8337 14.5C19.8337 11.2767 17.2208 8.66675 14.0003 8.66675ZM14.0003 11.0001C15.9334 11.0001 17.5003 12.5665 17.5003 14.5C17.5003 16.4331 15.9339 18 14.0003 18C12.0673 18 10.5003 16.4337 10.5003 14.5C10.5003 12.567 12.0667 11.0001 14.0003 11.0001ZM20.1253 6.91675C19.3212 6.91675 18.667 7.56997 18.667 8.37409C18.667 9.17821 19.3202 9.83244 20.1253 9.83244C20.9294 9.83244 21.5837 9.17923 21.5837 8.37409C21.5837 7.56997 20.9284 6.91574 20.1253 6.91675Z" fill="#A8A29E"/>
</svg>
