<svg width="48" height="48" viewBox="0 0 48 48" fill="none" xmlns="http://www.w3.org/2000/svg">
<path d="M24 4C35.0444 4 44 11.9556 44 21.7778C44 27.9112 39.0222 32.8888 32.8888 32.8888H28.9556C27.1112 32.8888 25.6222 34.3778 25.6222 36.2222C25.6222 37.0666 25.9556 37.8444 26.4666 38.4222C27 39.0222 27.3334 39.8 27.3334 40.6666C27.3334 42.5112 25.8 44 24 44C12.9556 44 4 35.0444 4 24C4 12.9556 12.9556 4 24 4ZM21.6222 36.2222C21.6222 32.1686 24.902 28.8888 28.9556 28.8888H32.8888C36.813 28.8888 40 25.702 40 21.7778C40 14.2784 32.9354 8 24 8C15.1647 8 8 15.1647 8 24C8 32.38 14.4452 39.257 22.648 39.9436C21.9896 38.8336 21.6222 37.5522 21.6222 36.2222ZM15 24C13.3431 24 12 22.6568 12 21C12 19.3431 13.3431 18 15 18C16.6569 18 18 19.3431 18 21C18 22.6568 16.6569 24 15 24ZM33 24C31.3432 24 30 22.6568 30 21C30 19.3431 31.3432 18 33 18C34.6568 18 36 19.3431 36 21C36 22.6568 34.6568 24 33 24ZM24 18C22.3432 18 21 16.6569 21 15C21 13.3431 22.3432 12 24 12C25.6568 12 27 13.3431 27 15C27 16.6569 25.6568 18 24 18Z" fill="#FAFAFA"/>
</svg>
